<?xml version="1.0" encoding="utf-8"?>
<!-- Generator: Adobe Illustrator 20.1.0, SVG Export Plug-In . SVG Version: 6.00 Build 0)  -->
<svg version="1.1" id="Layer_1" xmlns="http://www.w3.org/2000/svg" xmlns:xlink="http://www.w3.org/1999/xlink" x="0px" y="0px"
	 viewBox="0 0 868.8 240.4" style="enable-background:new 0 0 868.8 240.4;" xml:space="preserve">
<style type="text/css">
	.st0{fill:#00783C;}
</style>
<path class="st0" d="M196.2,14.2c9.1,13.8,13,16.5,27.6,18.3c11.3,1.4,29.8,2.9,34.1,6c11.4,8.2,15.6,22.4,6.4,32.1
	c-11.7,13-84.8,49.8-95.7,51.5c-4.2,2.9-13.2,7.2-10.9,13.5c3.5,8.4,82.1-41.3,118.7-37.5c16.4,1.7,22.8,19.8,16.7,34.4
	c-12.7,25.7-18.1,18.6-17.1,57.5c-1.4,16.3-13.5,23-30.5,24.1c-33.8,2.2-75.7-61.6-88.9-62.6c-4.9-0.4-4.8,5.1-3.8,7.8
	c2.1,5.8,35.4,57.6,35.7,73.6c0.1,4.9-0.3,8.1-5.4,7.3c-8.4-1.2-25-8.3-28.6-9.5c-1.4-0.7-2.2-1.6-2.4-3c-4-22.7-2.8-38.8-9.7-60.5
	c0-4.1-8.6-17.9-13.1-5c-8,23-32,73.9-60.3,74.9c-6.4,0.2-19.2-3.1-23.8-8c-14.1-14.8-9.5-32.5-28-49.9c-7.2-6.6-15-10.8-16.2-21.9
	C-1,141.6,8.1,134.3,25,134.7c8.2,0.6,16.6,1.1,24.6,2.2c17.6,2.4,48.3,12.5,65.4,9.5c5.9-1,10.7-7.3,5.7-10.4
	c-11.6-7.2-36-4.7-54.1-4.4c-15.3,0.2-33.8-5.2-44.7-13.5C13.1,111.4,0.4,100.3,0,88.3C-0.5,72.9,27.7,63.7,38.9,44
	c5.9-10.4,10.2-19.4,17.5-30.5c4.9-8.1,13.1-10.7,22-9.4c9.7,1.3,29.4,27.1,32.3,36.6c8.4,21.8,7.2,32,9.4,54.9
	c1,10.3-0.1,15.9,5,25.6c2.4,4.5,11,7.6,12.5-1.2c0.7-4.4,0.5-11.4-0.1-15.9c-1.4-11.5-5.3-31.5-5.4-44c-0.1-15.7-3.2-32,6.1-44.1
	c3-4,6.4-6.9,10.2-8.9C165.6-2,184.5-5,196.2,14.1V14.2z"/>
<g>
	<path class="st0" d="M838.2,60.9c14.7,0,23.4,10.5,27.6,23.5c1.5,4.8,2.5,10.2,3,16.2c0,0.2-0.1,1.6-1.4,1.8l-14.9,2.2
		c-0.9,0.1-1.7-0.5-1.9-1.4c-0.4-3-0.8-5.7-1.7-8.6c-2.4-7.6-8.5-12.1-16.3-8.1c-15.1,7.6-19.6,43.6-16.2,60.3
		c3.7,18.3,18.4,22.7,26.5,3c1.2-3,2.2-6.3,3-10.2c0-0.1,0.5-1.7,1.9-1.3l15.8,3.7c0.1,0,1.6,0.6,1.2,2c-1.4,6-3.2,12.1-5.8,17.8
		c-10.8,23.7-36.4,34-54.4,10.4C784.7,146.1,795.7,61,838.2,60.9L838.2,60.9z"/>
	<path class="st0" d="M747.8,116.2c4.3,0,8.7,0.1,13-0.6c16.3-2.4,17.9-28.4,7-29.8c-4.8-0.6-10.8-0.3-15.8-0.3L747.8,116.2z
		 M737.3,183.9h-15.6c-0.9,0-1.7-0.7-1.7-1.7l15.9-117.9c0.1-0.9,0.9-1.4,1.7-1.4h30.8c37.1,0,33.2,73.7-6.5,75.9
		c-5.7,0.3-11.4,0.2-17.1,0.2l-5.8,43.5C738.8,183.3,738.1,183.9,737.3,183.9z"/>
	<path class="st0" d="M665.1,64.3c0.1-0.9,0.9-1.4,1.7-1.4H723c0.9,0,1.7,0.7,1.7,1.7L722,84.4c-0.1,0.9-0.9,1.4-1.7,1.4h-39.2
		l-3.2,23.4h37.4c0.9,0,1.7,0.7,1.7,1.7l-2.7,19.9c-0.1,0.9-0.9,1.4-1.7,1.4h-37.9l-4.2,28.7h42.2c0.9,0,1.7,0.7,1.7,1.7l-2.7,19.9
		c-0.1,0.9-0.9,1.4-1.7,1.4h-59.3c-0.9,0-1.7-0.7-1.7-1.7L665,64.3L665.1,64.3z"/>
	<path class="st0" d="M594.4,161.6c4.9,0,20.9,0.7,25-1.7c8.4-4.9,10.4-25.8-4.1-25.8H598L594.4,161.6z M601.3,110.3
		c5.3,0,11.5,0.4,16.6-0.4c12.4-1.9,14.6-23.3,2.6-24c-5.2-0.3-10.7-0.1-15.9-0.1L601.3,110.3z M588.6,64.3c0.1-0.9,0.9-1.4,1.7-1.4
		c10.8,0,22.5-0.5,33.2,0.2c28.5,1.9,31,44.9,11,57.8c21.2,13.5,9.1,56.9-13.3,61.8c-11.8,2.7-34,1.1-46.7,1.1
		c-0.9,0-1.7-0.7-1.7-1.7L588.6,64.3L588.6,64.3z"/>
	<path class="st0" d="M517.9,64.3c0.1-0.9,0.9-1.4,1.7-1.4h56.2c0.9,0,1.7,0.7,1.7,1.7l-2.7,19.9c-0.1,0.9-0.9,1.4-1.7,1.4H534
		l-3.2,23.4h37.4c0.9,0,1.7,0.7,1.7,1.7l-2.7,19.9c-0.1,0.9-0.9,1.4-1.7,1.4h-37.9l-4.2,28.7h42.2c0.9,0,1.7,0.7,1.7,1.7l-2.7,19.9
		c-0.1,0.9-0.9,1.4-1.7,1.4h-59.3c-0.9,0-1.7-0.7-1.7-1.7l15.8-117.9L517.9,64.3z"/>
	<path class="st0" d="M382.2,62.9h15.5c0.9,0,1.7,0.7,1.7,1.7l-6.6,48.1c7.7-1.5,15.6-34.8,22.8-43.4c5.6-6.8,12.2-6.3,20.2-6.3
		c0.9,0,1.7,0.7,1.7,1.7c0,3-2.7,14.2-3.5,18c-0.1,0.8-0.9,1.4-1.7,1.4c-1.4,0-3.2-0.1-4.5,0.3c-1.4,0.4-1.9,1.4-2.5,2.7
		c-4.5,9.1-6.4,19.5-11.7,28.4c-1.6,2.7-3.6,5.3-6.3,7.1c1.9,1.5,3.4,3.7,4.8,6.3c4.6,9.5,9.4,43.6,11,52.8l2.7-19.6
		c0.1-0.9,0.9-1.5,1.9-1.4c7.1,1,8.6-0.8,9.9-9.4l12.7-86.8c0.1-0.8,0.9-1.4,1.7-1.4h52.2c0.9,0,1.7,0.7,1.7,1.7l-16.1,117.9
		c-0.1,0.9-0.9,1.4-1.7,1.4h-15.6c-0.9,0-1.7-0.7-1.7-1.7l13.2-96.4h-17.7l-11.5,80.5c-1.6,11.1-7.5,18.1-13.1,18.1
		c-3.6,0-17.4,1.5-18.6-1.7c-0.2,0.5-0.6,0.9-1.2,1c-2.8,0.5-12.7,0-16.3,0c-0.9,0-1.6-0.6-1.7-1.4c-1.3-7.3-5.5-44-10.8-48.2
		c-0.9-0.6-1.9-1.1-3-1.3l-6.8,49.6c-0.1,0.9-0.9,1.4-1.7,1.4h-15.4c-0.9,0-1.7-0.7-1.7-1.7l16.2-117.9
		C380.7,63.5,381.5,63,382.2,62.9L382.2,62.9z"/>
</g>
</svg>
